<svg width="76" height="750" viewBox="0 0 76 750" fill="none" xmlns="http://www.w3.org/2000/svg">
<path d="M73.4 0.600001V12.7L2 12.7V0.600001L73.4 0.600001ZM73.4 39.9461L12.5 39.9461V75.3461L2 73.8461L2 27.8461L73.4 27.8461V39.9461ZM73.4 97.2703L12.5 97.2703L12.5 132.67L2 131.17L2 85.1703L73.4 85.1703V97.2703ZM73.4 151.441H30.6C23.8667 151.441 18.8333 152.641 15.5 155.041C12.2333 157.508 10.6 161.641 10.6 167.441C10.6 173.175 12.2333 177.208 15.5 179.541C18.8333 181.941 23.8667 183.141 30.6 183.141H73.4V195.241H30.6C25.0667 195.241 20.3667 194.575 16.5 193.241C12.7 191.908 9.56667 190.008 7.1 187.541C4.7 185.075 2.96667 182.141 1.9 178.741C0.766667 175.341 0.2 171.541 0.2 167.341C0.2 158.208 2.63333 151.275 7.5 146.541C12.4333 141.808 20.2333 139.441 30.9 139.441H73.4V151.441ZM23.8 218.266C19.1333 218.799 15.7333 220.466 13.6 223.266C11.4667 226.132 10.4 230.366 10.4 235.966C10.4 238.699 10.7 240.999 11.3 242.866C11.9 244.732 12.7 246.232 13.7 247.366C14.7 248.499 15.8667 249.299 17.2 249.766C18.6 250.232 20.0667 250.466 21.6 250.466C22.7333 250.466 23.8333 250.299 24.9 249.966C26.0333 249.632 27.0667 249.032 28 248.166C28.9333 247.299 29.7333 246.132 30.4 244.666C31.1333 243.199 31.7 241.332 32.1 239.066L33.8 229.966C34.4667 226.366 35.3 223.166 36.3 220.366C37.3 217.566 38.6 215.199 40.2 213.266C41.8667 211.399 43.8667 209.966 46.2 208.966C48.6 208.032 51.5 207.566 54.9 207.566C58.3 207.566 61.2667 208.232 63.8 209.566C66.3333 210.966 68.4333 212.866 70.1 215.266C71.8333 217.666 73.1 220.499 73.9 223.766C74.7667 227.099 75.2 230.699 75.2 234.566C75.2 239.499 74.6333 243.632 73.5 246.966C72.3667 250.299 70.8667 252.999 69 255.066C67.2 257.132 65.1 258.699 62.7 259.766C60.3 260.832 57.8 261.566 55.2 261.966L53.4 250.566C57.4 249.632 60.3667 247.999 62.3 245.666C64.2333 243.399 65.2 239.766 65.2 234.766C65.2 231.899 64.9333 229.499 64.4 227.566C63.9333 225.699 63.2333 224.166 62.3 222.966C61.4333 221.832 60.4 220.999 59.2 220.466C58.0667 219.999 56.8667 219.766 55.6 219.766C52.4667 219.766 50.1333 220.599 48.6 222.266C47.0667 223.999 45.8667 226.999 45 231.266L43.1 241.166C41.7 248.699 39.3 254.232 35.9 257.766C32.5667 261.299 27.7333 263.066 21.4 263.066C18.4 263.066 15.6 262.499 13 261.366C10.4667 260.299 8.23333 258.632 6.3 256.366C4.43333 254.099 2.96667 251.266 1.9 247.866C0.766667 244.532 0.2 240.632 0.2 236.166C0.2 227.032 2.1 219.866 5.9 214.666C9.76667 209.466 15.7333 206.599 23.8 206.066V218.266ZM62.9 290.645L62.9 268.045H73.4V325.245H62.9L62.9 302.745H2V290.645H62.9ZM40.4 360.08C40.4 362.813 40.6667 365.08 41.2 366.88C41.8 368.68 42.6 370.08 43.6 371.08C44.6667 372.146 45.9333 372.88 47.4 373.28C48.8667 373.746 50.5 373.98 52.3 373.98C53.9667 373.98 55.4667 373.713 56.8 373.18C58.2 372.713 59.3667 371.88 60.3 370.68C61.3 369.546 62.0667 368.013 62.6 366.08C63.1333 364.146 63.4 361.746 63.4 358.88V346.68H40.4V360.08ZM73.4 359.18C73.4 364.58 72.7667 369.013 71.5 372.48C70.2333 376.013 68.5667 378.78 66.5 380.78C64.5 382.846 62.2667 384.28 59.8 385.08C57.3333 385.88 54.9 386.28 52.5 386.28C47.8333 386.28 43.9333 385.346 40.8 383.48C37.6667 381.68 35.1333 378.746 33.2 374.68L2 389.48V376.28L30.4 363.48C30.3333 362.88 30.2667 362.246 30.2 361.58C30.2 360.913 30.2 360.213 30.2 359.48V346.68H2L2 334.78H73.4L73.4 359.18ZM73.4 421.691V433.691L2 460.891V447.991L20.2 441.291L20.2 413.591L2 406.991V394.491L73.4 421.691ZM30.3 437.991L59.7 427.391L30.3 416.891L30.3 437.991ZM62.9 476.973L62.9 454.373H73.4L73.4 511.573H62.9V489.073H2V476.973H62.9ZM73.4 521.108V533.208H2V521.108H73.4ZM0.2 579.454C0.2 574.321 1.03333 569.687 2.7 565.554C4.43333 561.487 6.9 557.987 10.1 555.054C13.3 552.121 17.2 549.854 21.8 548.254C26.4667 546.721 31.7333 545.954 37.6 545.954C43.4667 545.954 48.7333 546.754 53.4 548.354C58.0667 549.954 62 552.221 65.2 555.154C68.4667 558.087 70.9333 561.621 72.6 565.754C74.3333 569.887 75.2 574.454 75.2 579.454C75.2 584.521 74.3333 589.121 72.6 593.254C70.9333 597.387 68.5 600.887 65.3 603.754C62.1 606.621 58.1667 608.821 53.5 610.354C48.9 611.954 43.6667 612.754 37.8 612.754C31.8667 612.754 26.5667 611.987 21.9 610.454C17.3 608.921 13.3667 606.721 10.1 603.854C6.9 600.987 4.43333 597.487 2.7 593.354C1.03333 589.287 0.2 584.654 0.2 579.454ZM10.6 579.354C10.6 586.221 13 591.421 17.8 594.954C22.6667 598.487 29.3 600.254 37.7 600.254C41.9 600.254 45.6667 599.787 49 598.854C52.3333 597.987 55.1667 596.687 57.5 594.954C59.8333 593.221 61.6333 591.054 62.9 588.454C64.1667 585.854 64.8 582.821 64.8 579.354C64.8 575.887 64.1667 572.854 62.9 570.254C61.6333 567.654 59.8333 565.454 57.5 563.654C55.1667 561.921 52.3333 560.621 49 559.754C45.6667 558.887 41.9 558.454 37.7 558.454C29.3 558.454 22.6667 560.187 17.8 563.654C13 567.187 10.6 572.421 10.6 579.354ZM73.4 625.6V636.8L21.8 669.6H73.4V681.4H2V670.2L53.4 637.3H2V625.6H73.4ZM23.8 704.496C19.1333 705.029 15.7333 706.696 13.6 709.496C11.4667 712.363 10.4 716.596 10.4 722.196C10.4 724.929 10.7 727.229 11.3 729.096C11.9 730.963 12.7 732.463 13.7 733.596C14.7 734.729 15.8667 735.529 17.2 735.996C18.6 736.463 20.0667 736.696 21.6 736.696C22.7333 736.696 23.8333 736.529 24.9 736.196C26.0333 735.863 27.0667 735.263 28 734.396C28.9333 733.529 29.7333 732.363 30.4 730.896C31.1333 729.429 31.7 727.563 32.1 725.296L33.8 716.196C34.4667 712.596 35.3 709.396 36.3 706.596C37.3 703.796 38.6 701.429 40.2 699.496C41.8667 697.629 43.8667 696.196 46.2 695.196C48.6 694.263 51.5 693.796 54.9 693.796C58.3 693.796 61.2667 694.463 63.8 695.796C66.3333 697.196 68.4333 699.096 70.1 701.496C71.8333 703.896 73.1 706.729 73.9 709.996C74.7667 713.329 75.2 716.929 75.2 720.796C75.2 725.729 74.6333 729.863 73.5 733.196C72.3667 736.529 70.8667 739.229 69 741.296C67.2 743.363 65.1 744.929 62.7 745.996C60.3 747.063 57.8 747.796 55.2 748.196L53.4 736.796C57.4 735.863 60.3667 734.229 62.3 731.896C64.2333 729.629 65.2 725.996 65.2 720.996C65.2 718.129 64.9333 715.729 64.4 713.796C63.9333 711.929 63.2333 710.396 62.3 709.196C61.4333 708.063 60.4 707.229 59.2 706.696C58.0667 706.229 56.8667 705.996 55.6 705.996C52.4667 705.996 50.1333 706.829 48.6 708.496C47.0667 710.229 45.8667 713.229 45 717.496L43.1 727.396C41.7 734.929 39.3 740.463 35.9 743.996C32.5667 747.529 27.7333 749.296 21.4 749.296C18.4 749.296 15.6 748.729 13 747.596C10.4667 746.529 8.23333 744.863 6.3 742.596C4.43333 740.329 2.96667 737.496 1.9 734.096C0.766667 730.763 0.2 726.863 0.2 722.396C0.2 713.263 2.1 706.096 5.9 700.896C9.76667 695.696 15.7333 692.829 23.8 692.296V704.496Z" fill="white"/>
</svg>
