<svg width="76" height="497" viewBox="0 0 76 497" fill="none" xmlns="http://www.w3.org/2000/svg">
<path d="M39.9 61.7H10.5C7.1 58.0333 4.53333 53.7 2.8 48.7C1.06667 43.7 0.2 38.6667 0.2 33.6C0.2 28.0667 1.06667 23.2 2.8 19C4.6 14.8667 7.1 11.4 10.3 8.6C13.5667 5.8 17.5 3.7 22.1 2.3C26.7 0.9 31.8667 0.2 37.6 0.2C43.4 0.2 48.6 0.966667 53.2 2.5C57.8667 4.03333 61.8333 6.2 65.1 9C68.3667 11.8 70.8667 15.2 72.6 19.2C74.3333 23.2 75.2 27.6667 75.2 32.6C75.2 36.9333 74.6333 40.7 73.5 43.9C72.4333 47.1667 70.9333 49.9 69 52.1C67.0667 54.3667 64.8 56.1667 62.2 57.5C59.6667 58.9 56.9333 59.9 54 60.5L52.3 48.6C54.3 48.0667 56.0667 47.4 57.6 46.6C59.2 45.8667 60.5333 44.8667 61.6 43.6C62.6667 42.4 63.4667 40.9 64 39.1C64.6 37.3 64.9 35.1333 64.9 32.6C64.9 29.2667 64.2333 26.3333 62.9 23.8C61.6333 21.3333 59.8 19.2667 57.4 17.6C55 15.9333 52.1333 14.7 48.8 13.9C45.4667 13.1 41.7667 12.7 37.7 12.7C33.5 12.7 29.7333 13.1 26.4 13.9C23.0667 14.7 20.2 15.9667 17.8 17.7C15.4667 19.4333 13.6667 21.6 12.4 24.2C11.1333 26.8667 10.5 30.0667 10.5 33.8C10.5 37.1333 10.8333 40.1333 11.5 42.8C12.2333 45.4667 13.4667 48.0333 15.2 50.5H29.7V34.7H39.9V61.7ZM40.4 99.9703C40.4 102.704 40.6667 104.97 41.2 106.77C41.8 108.57 42.6 109.97 43.6 110.97C44.6667 112.037 45.9333 112.77 47.4 113.17C48.8667 113.637 50.5 113.87 52.3 113.87C53.9667 113.87 55.4667 113.604 56.8 113.07C58.2 112.604 59.3667 111.77 60.3 110.57C61.3 109.437 62.0667 107.904 62.6 105.97C63.1333 104.037 63.4 101.637 63.4 98.7703L63.4 86.5703H40.4V99.9703ZM73.4 99.0703C73.4 104.47 72.7667 108.904 71.5 112.37C70.2333 115.904 68.5667 118.67 66.5 120.67C64.5 122.737 62.2667 124.17 59.8 124.97C57.3333 125.77 54.9 126.17 52.5 126.17C47.8333 126.17 43.9333 125.237 40.8 123.37C37.6667 121.57 35.1333 118.637 33.2 114.57L2 129.37V116.17L30.4 103.37C30.3333 102.77 30.2667 102.137 30.2 101.47C30.2 100.804 30.2 100.104 30.2 99.3703V86.5703H2V74.6703L73.4 74.6703V99.0703ZM73.4 161.581V173.581L2 200.781L2 187.881L20.2 181.181V153.481L2 146.881V134.381L73.4 161.581ZM30.3 177.881L59.7 167.281L30.3 156.781V177.881ZM73.4 209.436V234.136C73.4 239.536 72.8 243.969 71.6 247.436C70.4 250.969 68.8 253.736 66.8 255.736C64.8 257.736 62.4667 259.136 59.8 259.936C57.2 260.736 54.4667 261.136 51.6 261.136C48.5333 261.136 45.6 260.736 42.8 259.936C40 259.136 37.5333 257.703 35.4 255.636C33.3333 253.636 31.6667 250.903 30.4 247.436C29.2 243.969 28.6 239.603 28.6 234.336V221.336L2 221.336V209.436L73.4 209.436ZM38.7 234.036C38.7 237.103 39 239.603 39.6 241.536C40.2 243.536 41.0333 245.103 42.1 246.236C43.2333 247.369 44.5667 248.136 46.1 248.536C47.6333 249.003 49.3667 249.236 51.3 249.236C53.3 249.236 55.0333 249.003 56.5 248.536C58.0333 248.069 59.3 247.236 60.3 246.036C61.3 244.903 62.0667 243.336 62.6 241.336C63.1333 239.403 63.4 236.936 63.4 233.936V221.336H38.7V234.036ZM73.4 272.717V284.817H44.5L44.5 316.917H73.4V329.017H2V316.917H33.3V284.817H2V272.717H73.4ZM73.4 344.202L73.4 356.302H2V344.202H73.4ZM26.1 431.248C22.3667 430.848 18.9333 429.948 15.8 428.548C12.6667 427.148 9.93333 425.214 7.6 422.748C5.26667 420.281 3.43333 417.281 2.1 413.748C0.833333 410.214 0.2 406.114 0.2 401.448C0.2 396.314 1.06667 391.714 2.8 387.648C4.53333 383.648 7 380.248 10.2 377.448C13.4667 374.714 17.4 372.614 22 371.148C26.6667 369.748 31.8667 369.048 37.6 369.048C43.4667 369.048 48.7333 369.814 53.4 371.348C58.0667 372.948 62 375.181 65.2 378.048C68.4667 380.914 70.9333 384.348 72.6 388.348C74.3333 392.348 75.2 396.748 75.2 401.548C75.2 406.014 74.6333 409.881 73.5 413.148C72.3667 416.414 70.7333 419.181 68.6 421.448C66.5333 423.781 64.0333 425.614 61.1 426.948C58.1667 428.348 54.9 429.381 51.3 430.048L49.6 418.148C52 417.614 54.1333 416.948 56 416.148C57.8667 415.348 59.4333 414.281 60.7 412.948C62.0333 411.681 63.0333 410.114 63.7 408.248C64.4333 406.381 64.8 404.148 64.8 401.548C64.8 398.348 64.1667 395.514 62.9 393.048C61.6333 390.581 59.8 388.481 57.4 386.748C55.0667 385.081 52.2333 383.814 48.9 382.948C45.5667 382.081 41.8333 381.648 37.7 381.648C33.5 381.648 29.7333 382.081 26.4 382.948C23.0667 383.881 20.2 385.214 17.8 386.948C15.4667 388.681 13.6667 390.748 12.4 393.148C11.2 395.614 10.6 398.414 10.6 401.548C10.6 404.348 10.9667 406.714 11.7 408.648C12.4333 410.648 13.4667 412.314 14.8 413.648C16.1333 414.981 17.7333 416.014 19.6 416.748C21.5333 417.548 23.7 418.114 26.1 418.448L26.1 431.248ZM23.8 452.004C19.1333 452.537 15.7333 454.204 13.6 457.004C11.4667 459.871 10.4 464.104 10.4 469.704C10.4 472.437 10.7 474.737 11.3 476.604C11.9 478.471 12.7 479.971 13.7 481.104C14.7 482.237 15.8667 483.037 17.2 483.504C18.6 483.971 20.0667 484.204 21.6 484.204C22.7333 484.204 23.8333 484.037 24.9 483.704C26.0333 483.371 27.0667 482.771 28 481.904C28.9333 481.037 29.7333 479.871 30.4 478.404C31.1333 476.937 31.7 475.071 32.1 472.804L33.8 463.704C34.4667 460.104 35.3 456.904 36.3 454.104C37.3 451.304 38.6 448.937 40.2 447.004C41.8667 445.137 43.8667 443.704 46.2 442.704C48.6 441.771 51.5 441.304 54.9 441.304C58.3 441.304 61.2667 441.971 63.8 443.304C66.3333 444.704 68.4333 446.604 70.1 449.004C71.8333 451.404 73.1 454.237 73.9 457.504C74.7667 460.837 75.2 464.437 75.2 468.304C75.2 473.237 74.6333 477.371 73.5 480.704C72.3667 484.037 70.8667 486.737 69 488.804C67.2 490.871 65.1 492.437 62.7 493.504C60.3 494.571 57.8 495.304 55.2 495.704L53.4 484.304C57.4 483.371 60.3667 481.737 62.3 479.404C64.2333 477.137 65.2 473.504 65.2 468.504C65.2 465.637 64.9333 463.237 64.4 461.304C63.9333 459.437 63.2333 457.904 62.3 456.704C61.4333 455.571 60.4 454.737 59.2 454.204C58.0667 453.737 56.8667 453.504 55.6 453.504C52.4667 453.504 50.1333 454.337 48.6 456.004C47.0667 457.737 45.8667 460.737 45 465.004L43.1 474.904C41.7 482.437 39.3 487.971 35.9 491.504C32.5667 495.037 27.7333 496.804 21.4 496.804C18.4 496.804 15.6 496.237 13 495.104C10.4667 494.037 8.23333 492.371 6.3 490.104C4.43333 487.837 2.96667 485.004 1.9 481.604C0.766667 478.271 0.2 474.371 0.2 469.904C0.2 460.771 2.1 453.604 5.9 448.404C9.76667 443.204 15.7333 440.337 23.8 439.804V452.004Z" fill="white"/>
</svg>
