<svg width="76" height="543" viewBox="0 0 76 543" fill="none" xmlns="http://www.w3.org/2000/svg">
<path d="M26.5 47.1V37.5H43.8L43.8 68H9.8C6.73333 63.9333 4.36667 59.1667 2.7 53.7C1.03333 48.3 0.2 42.6333 0.2 36.7C0.2 24.9 3.4 15.8333 9.8 9.5C16.2 3.16667 25.3667 2.83122e-07 37.3 2.83122e-07C49.2333 2.83122e-07 58.5333 3.13333 65.2 9.4C71.8667 15.7333 75.2 24.5333 75.2 35.8C75.2 44.6667 73.0667 51.8667 68.8 57.4C64.6 62.9333 58.6667 66.2667 51 67.4L49.1 44.6C51.6333 44 53.4333 43 54.5 41.6C55.6333 40.2 56.2 38.2 56.2 35.6C56.2 31.2667 54.7667 28.1333 51.9 26.2C49.0333 24.2667 44.4 23.3 38 23.3C31.2667 23.3 26.4333 24.4333 23.5 26.7C20.6333 28.9667 19.2 32.7333 19.2 38C19.2 41.7333 19.7333 44.7667 20.8 47.1H26.5ZM2 119.653L24.9 108.253V100.253H2V78.9531L73.4 78.9531L73.4 109.553C73.4 119.086 71.4333 126.286 67.5 131.153C63.5667 136.086 57.7333 138.553 50 138.553C40.8 138.553 33.9333 135.053 29.4 128.053L2 142.853V119.653ZM41.4 107.853C41.4 111.12 42 113.486 43.2 114.953C44.4 116.486 46.3333 117.253 49 117.253C51.6667 117.253 53.6 116.486 54.8 114.953C56 113.486 56.6 111.12 56.6 107.853V100.253H41.4V107.853ZM2 198.128L13.5 194.928L13.5 172.328L2 169.228V146.828L73.4 170.028V198.028L2 221.028V198.128ZM54.9 183.628L31.2 177.128L31.2 190.128L54.9 183.628ZM2 229.051L73.4 229.051V256.751C73.4 266.617 71.3333 273.984 67.2 278.851C63.0667 283.717 56.8333 286.151 48.5 286.151C31.7667 286.151 23.4 276.384 23.4 256.851V250.851H2V229.051ZM41 256.951C41 260.084 41.5667 262.317 42.7 263.651C43.8333 265.051 45.7333 265.751 48.4 265.751C51.0667 265.751 52.9667 265.051 54.1 263.651C55.2333 262.317 55.8 260.084 55.8 256.951V250.851H41V256.951ZM2 337.352H28.8V318.352H2V295.652H73.4V318.352H48.8L48.8 337.352H73.4L73.4 360.052H2L2 337.352ZM2 372.02H73.4V394.72H2V372.02ZM29.3 472.488C20.1 472.021 12.9333 468.888 7.8 463.088C2.73333 457.354 0.2 449.521 0.2 439.588C0.2 428.388 3.36667 419.754 9.7 413.688C16.0333 407.688 25.1 404.688 36.9 404.688C49.1 404.688 58.5333 407.788 65.2 413.988C71.8667 420.254 75.2 429.054 75.2 440.388C75.2 449.454 73.0667 456.521 68.8 461.588C64.5333 466.721 58.0667 469.988 49.4 471.388L46.9 448.788C49.9667 448.121 52.2 447.054 53.6 445.588C55 444.121 55.7 442.088 55.7 439.488C55.7 435.821 54.2333 433.088 51.3 431.288C48.4333 429.554 43.9667 428.688 37.9 428.688C31.6333 428.688 27.0333 429.621 24.1 431.488C21.1667 433.354 19.7 436.254 19.7 440.188C19.7 445.854 22.9 449.088 29.3 449.888V472.488ZM29.9 504.369C31.5 496.169 34.0667 490.135 37.6 486.269C41.1333 482.469 45.8667 480.569 51.8 480.569C59.2 480.569 64.9333 483.235 69 488.569C73.1333 493.902 75.2 501.402 75.2 511.069C75.2 520.135 73.2667 527.269 69.4 532.469C65.6 537.669 60.1667 540.602 53.1 541.269L51.1 519.169C53.6333 518.569 55.4 517.602 56.4 516.269C57.4 515.002 57.9 513.035 57.9 510.369C57.9 507.835 57.5 505.902 56.7 504.569C55.9 503.302 54.7667 502.669 53.3 502.669C52.1 502.669 51.1333 503.169 50.4 504.169C49.6667 505.169 49.0667 506.835 48.6 509.169L46.6 518.769C44.8 527.235 42.1667 533.335 38.7 537.069C35.3 540.802 30.5667 542.669 24.5 542.669C16.6333 542.669 10.6 539.935 6.4 534.469C2.26667 529.069 0.2 521.235 0.2 510.969C0.2 501.035 2.33333 493.369 6.6 487.969C10.8667 482.635 17.2333 479.669 25.7 479.069L25.7 501.469C22.9 501.869 20.8333 502.935 19.5 504.669C18.1667 506.469 17.5 509.035 17.5 512.369C17.5 517.769 19.2667 520.469 22.8 520.469C24.2 520.469 25.3 519.969 26.1 518.969C26.9 518.035 27.5333 516.402 28 514.069L29.9 504.369Z" fill="black"/>
</svg>
