<svg width="76" height="823" viewBox="0 0 76 823" fill="none" xmlns="http://www.w3.org/2000/svg">
<path d="M2 2.38419e-07L73.4 2.38419e-07V22.7L2 22.7V2.38419e-07ZM2 34.668L73.4 34.668L73.4 57.368L21.5 57.368V87.268L2 85.368V34.668ZM2 95.3125L73.4 95.3125L73.4 118.013L21.5 118.013V147.913L2 146.013L2 95.3125ZM73.4 194.58L73.4 217.28H31.9C21.5 217.28 13.6 214.614 8.2 209.28C2.86667 203.947 0.2 196.047 0.2 185.58C0.2 164.847 10.7667 154.48 31.9 154.48H73.4V177.18H30.9C26.9667 177.18 24.1 177.847 22.3 179.18C20.5667 180.58 19.7 182.814 19.7 185.88C19.7 188.947 20.5667 191.147 22.3 192.48C24.1 193.88 26.9667 194.58 30.9 194.58H73.4ZM29.9 250.709C31.5 242.509 34.0667 236.475 37.6 232.609C41.1333 228.809 45.8667 226.909 51.8 226.909C59.2 226.909 64.9333 229.575 69 234.909C73.1333 240.242 75.2 247.742 75.2 257.409C75.2 266.475 73.2667 273.609 69.4 278.809C65.6 284.009 60.1667 286.942 53.1 287.609L51.1 265.509C53.6333 264.909 55.4 263.942 56.4 262.609C57.4 261.342 57.9 259.375 57.9 256.709C57.9 254.175 57.5 252.242 56.7 250.909C55.9 249.642 54.7667 249.009 53.3 249.009C52.1 249.009 51.1333 249.509 50.4 250.509C49.6667 251.509 49.0667 253.175 48.6 255.509L46.6 265.109C44.8 273.575 42.1667 279.675 38.7 283.409C35.3 287.142 30.5667 289.009 24.5 289.009C16.6333 289.009 10.6 286.275 6.4 280.809C2.26667 275.409 0.2 267.575 0.2 257.309C0.2 247.375 2.33333 239.709 6.6 234.309C10.8667 228.975 17.2333 226.009 25.7 225.409V247.809C22.9 248.209 20.8333 249.275 19.5 251.009C18.1667 252.809 17.5 255.375 17.5 258.709C17.5 264.109 19.2667 266.809 22.8 266.809C24.2 266.809 25.3 266.309 26.1 265.309C26.9 264.375 27.5333 262.742 28 260.409L29.9 250.709ZM2 314.349H53.9V294.449H73.4L73.4 356.949H53.9V337.049H2V314.349ZM2 406.13L24.9 394.73V386.73H2V365.43H73.4V396.03C73.4 405.563 71.4333 412.763 67.5 417.63C63.5667 422.563 57.7333 425.03 50 425.03C40.8 425.03 33.9333 421.53 29.4 414.53L2 429.33L2 406.13ZM41.4 394.33C41.4 397.596 42 399.963 43.2 401.43C44.4 402.963 46.3333 403.73 49 403.73C51.6667 403.73 53.6 402.963 54.8 401.43C56 399.963 56.6 397.596 56.6 394.33V386.73H41.4V394.33ZM2 484.605L13.5 481.405V458.805L2 455.705V433.305L73.4 456.505V484.505L2 507.505L2 484.605ZM54.9 470.105L31.2 463.605V476.605L54.9 470.105ZM2 521.38H53.9L53.9 501.48H73.4L73.4 563.98H53.9L53.9 544.08H2V521.38ZM2 572.461H73.4V595.161H2L2 572.461ZM0.2 640.829C0.2 629.496 3.43333 620.696 9.9 614.429C16.3667 608.229 25.5333 605.129 37.4 605.129C45.2 605.129 51.9333 606.529 57.6 609.329C63.2667 612.129 67.6 616.229 70.6 621.629C73.6667 627.096 75.2 633.696 75.2 641.429C75.2 652.762 71.9667 661.529 65.5 667.729C59.0333 673.996 49.9 677.129 38.1 677.129C26.1 677.129 16.7667 673.929 10.1 667.529C3.5 661.196 0.2 652.296 0.2 640.829ZM19.7 641.129C19.7 649.462 25.7 653.629 37.7 653.629C49.7 653.629 55.7 649.462 55.7 641.129C55.7 632.796 49.7 628.629 37.7 628.629C25.7 628.629 19.7 632.796 19.7 641.129ZM2 731.309L38.3 708.309H2V687.109H73.4V706.609L37.3 729.409H73.4V750.609H2V731.309ZM29.9 784.498C31.5 776.298 34.0667 770.264 37.6 766.398C41.1333 762.598 45.8667 760.698 51.8 760.698C59.2 760.698 64.9333 763.364 69 768.698C73.1333 774.031 75.2 781.531 75.2 791.198C75.2 800.264 73.2667 807.398 69.4 812.598C65.6 817.798 60.1667 820.731 53.1 821.398L51.1 799.298C53.6333 798.698 55.4 797.731 56.4 796.398C57.4 795.131 57.9 793.164 57.9 790.498C57.9 787.964 57.5 786.031 56.7 784.698C55.9 783.431 54.7667 782.798 53.3 782.798C52.1 782.798 51.1333 783.298 50.4 784.298C49.6667 785.298 49.0667 786.964 48.6 789.298L46.6 798.898C44.8 807.364 42.1667 813.464 38.7 817.198C35.3 820.931 30.5667 822.798 24.5 822.798C16.6333 822.798 10.6 820.064 6.4 814.598C2.26667 809.198 0.2 801.364 0.2 791.098C0.2 781.164 2.33333 773.498 6.6 768.098C10.8667 762.764 17.2333 759.798 25.7 759.198V781.598C22.9 781.998 20.8333 783.064 19.5 784.798C18.1667 786.598 17.5 789.164 17.5 792.498C17.5 797.898 19.2667 800.598 22.8 800.598C24.2 800.598 25.3 800.098 26.1 799.098C26.9 798.164 27.5333 796.531 28 794.198L29.9 784.498Z" fill="black"/>
</svg>
