<svg width="76" height="493" viewBox="0 0 76 493" fill="none" xmlns="http://www.w3.org/2000/svg">
<path d="M73.4 13.7L19.2 26.9L73 40.5L73 53.4L19.3 67.2L73.4 80V92.9L2 73.2V61.1L58.2 46.6L2 32.3V20.6L73.4 0.1V13.7ZM73.4 101.62L73.4 149.12H63L63 113.72H44L44 147.12H33.5L33.5 113.72H12.4L12.4 151.02L2 149.62L2 101.62L73.4 101.62ZM73.4 162.459V187.159C73.4 192.359 72.9 196.626 71.9 199.959C70.9667 203.293 69.6333 205.926 67.9 207.859C66.2333 209.859 64.2333 211.226 61.9 211.959C59.6333 212.693 57.2 213.059 54.6 213.059C51.6 213.059 48.8 212.393 46.2 211.059C43.6667 209.726 41.5667 207.293 39.9 203.759C38.9 206.026 37.7667 207.893 36.5 209.359C35.2333 210.826 33.8667 211.993 32.4 212.859C31 213.726 29.5 214.326 27.9 214.659C26.3667 214.993 24.8 215.159 23.2 215.159C20.2667 215.159 17.5 214.693 14.9 213.759C12.3 212.893 10.0333 211.426 8.1 209.359C6.23333 207.293 4.73333 204.593 3.6 201.259C2.53333 197.926 2 193.826 2 188.959V162.459L73.4 162.459ZM44.1 188.559C44.1 193.293 44.9667 196.593 46.7 198.459C48.4333 200.326 50.9333 201.259 54.2 201.259C57.6 201.259 60.0333 200.159 61.5 197.959C63.0333 195.826 63.8 192.093 63.8 186.759V174.159H44.1V188.559ZM11.7 188.559C11.7 191.426 11.9667 193.793 12.5 195.659C13.0333 197.593 13.8 199.093 14.8 200.159C15.8 201.293 17 202.093 18.4 202.559C19.8 203.026 21.3667 203.259 23.1 203.259C26.7 203.259 29.4333 202.226 31.3 200.159C33.2333 198.159 34.2 194.659 34.2 189.659V174.159L11.7 174.159V188.559ZM23.8 235.301C19.1333 235.834 15.7333 237.501 13.6 240.301C11.4667 243.167 10.4 247.401 10.4 253.001C10.4 255.734 10.7 258.034 11.3 259.901C11.9 261.767 12.7 263.267 13.7 264.401C14.7 265.534 15.8667 266.334 17.2 266.801C18.6 267.267 20.0667 267.501 21.6 267.501C22.7333 267.501 23.8333 267.334 24.9 267.001C26.0333 266.667 27.0667 266.067 28 265.201C28.9333 264.334 29.7333 263.167 30.4 261.701C31.1333 260.234 31.7 258.367 32.1 256.101L33.8 247.001C34.4667 243.401 35.3 240.201 36.3 237.401C37.3 234.601 38.6 232.234 40.2 230.301C41.8667 228.434 43.8667 227.001 46.2 226.001C48.6 225.067 51.5 224.601 54.9 224.601C58.3 224.601 61.2667 225.267 63.8 226.601C66.3333 228.001 68.4333 229.901 70.1 232.301C71.8333 234.701 73.1 237.534 73.9 240.801C74.7667 244.134 75.2 247.734 75.2 251.601C75.2 256.534 74.6333 260.667 73.5 264.001C72.3667 267.334 70.8667 270.034 69 272.101C67.2 274.167 65.1 275.734 62.7 276.801C60.3 277.867 57.8 278.601 55.2 279.001L53.4 267.601C57.4 266.667 60.3667 265.034 62.3 262.701C64.2333 260.434 65.2 256.801 65.2 251.801C65.2 248.934 64.9333 246.534 64.4 244.601C63.9333 242.734 63.2333 241.201 62.3 240.001C61.4333 238.867 60.4 238.034 59.2 237.501C58.0667 237.034 56.8667 236.801 55.6 236.801C52.4667 236.801 50.1333 237.634 48.6 239.301C47.0667 241.034 45.8667 244.034 45 248.301L43.1 258.201C41.7 265.734 39.3 271.267 35.9 274.801C32.5667 278.334 27.7333 280.101 21.4 280.101C18.4 280.101 15.6 279.534 13 278.401C10.4667 277.334 8.23333 275.667 6.3 273.401C4.43333 271.134 2.96667 268.301 1.9 264.901C0.766667 261.567 0.2 257.667 0.2 253.201C0.2 244.067 2.1 236.901 5.9 231.701C9.76667 226.501 15.7333 223.634 23.8 223.101V235.301ZM73.4 291.756V303.856H2V291.756H73.4ZM62.9 335.902L62.9 313.302H73.4L73.4 370.502H62.9L62.9 348.002H2L2 335.902H62.9ZM73.4 380.038L73.4 427.537H63L63 392.138H44L44 425.538H33.5L33.5 392.138H12.4L12.4 429.438L2 428.038L2 380.038H73.4ZM23.8 447.801C19.1333 448.334 15.7333 450.001 13.6 452.801C11.4667 455.667 10.4 459.901 10.4 465.501C10.4 468.234 10.7 470.534 11.3 472.401C11.9 474.267 12.7 475.767 13.7 476.901C14.7 478.034 15.8667 478.834 17.2 479.301C18.6 479.767 20.0667 480.001 21.6 480.001C22.7333 480.001 23.8333 479.834 24.9 479.501C26.0333 479.167 27.0667 478.567 28 477.701C28.9333 476.834 29.7333 475.667 30.4 474.201C31.1333 472.734 31.7 470.867 32.1 468.601L33.8 459.501C34.4667 455.901 35.3 452.701 36.3 449.901C37.3 447.101 38.6 444.734 40.2 442.801C41.8667 440.934 43.8667 439.501 46.2 438.501C48.6 437.567 51.5 437.101 54.9 437.101C58.3 437.101 61.2667 437.767 63.8 439.101C66.3333 440.501 68.4333 442.401 70.1 444.801C71.8333 447.201 73.1 450.034 73.9 453.301C74.7667 456.634 75.2 460.234 75.2 464.101C75.2 469.034 74.6333 473.167 73.5 476.501C72.3667 479.834 70.8667 482.534 69 484.601C67.2 486.667 65.1 488.234 62.7 489.301C60.3 490.367 57.8 491.101 55.2 491.501L53.4 480.101C57.4 479.167 60.3667 477.534 62.3 475.201C64.2333 472.934 65.2 469.301 65.2 464.301C65.2 461.434 64.9333 459.034 64.4 457.101C63.9333 455.234 63.2333 453.701 62.3 452.501C61.4333 451.367 60.4 450.534 59.2 450.001C58.0667 449.534 56.8667 449.301 55.6 449.301C52.4667 449.301 50.1333 450.134 48.6 451.801C47.0667 453.534 45.8667 456.534 45 460.801L43.1 470.701C41.7 478.234 39.3 483.767 35.9 487.301C32.5667 490.834 27.7333 492.601 21.4 492.601C18.4 492.601 15.6 492.034 13 490.901C10.4667 489.834 8.23333 488.167 6.3 485.901C4.43333 483.634 2.96667 480.801 1.9 477.401C0.766667 474.067 0.2 470.167 0.2 465.701C0.2 456.567 2.1 449.401 5.9 444.201C9.76667 439.001 15.7333 436.134 23.8 435.601V447.801Z" fill="white"/>
</svg>
